<?xml version="1.0" encoding="UTF-8"?>
<!DOCTYPE svg  PUBLIC '-//W3C//DTD SVG 1.1//EN'  'http://www.w3.org/Graphics/SVG/1.1/DTD/svg11.dtd'>
<svg fill="#ffffff" version="1.1" viewBox="0 0 24 24" xmlns="http://www.w3.org/2000/svg">
<path d="m8 11.5a1.25 1.25 0 0 0 -1.25 1.25 1.25 1.25 0 0 0 1.25 1.25 1.25 1.25 0 0 0 1.25 -1.25 1.25 1.25 0 0 0 -1.25 -1.25m8 0a1.25 1.25 0 0 0 -1.25 1.25 1.25 1.25 0 0 0 1.25 1.25 1.25 1.25 0 0 0 1.25 -1.25 1.25 1.25 0 0 0 -1.25 -1.25m-4-4.5c1.5 0 2.9 0.33 4.18 0.91l2.16-2.16c0.39-0.39 1.02-0.39 1.41 0s0.39 1.02 0 1.41l-1.8 1.8c2.46 1.83 4.05 4.75 4.05 8.04h-20c0-3.29 1.59-6.21 4.05-8.04l-1.8-1.8c-0.39-0.39-0.39-1.02 0-1.41s1.02-0.39 1.41 0l2.16 2.16c1.28-0.58 2.68-0.91 4.18-0.91z"/>
</svg>
