<?xml version="1.0" encoding="UTF-8"?>
<svg enable-background="new 0 0 24 24" fill="#fff" version="1.1" viewBox="0 0 24 24" xml:space="preserve" xmlns="http://www.w3.org/2000/svg">
<path d="m10.79 16.29c0.39 0.39 1.02 0.39 1.41 0l3.59-3.59c0.39-0.39 0.39-1.02 0-1.41l-3.59-3.59c-0.39-0.39-1.02-0.39-1.41 0s-0.39 1.02 0 1.41l1.88 1.89h-8.67c-0.55 0-1 0.45-1 1s0.45 1 1 1h8.67l-1.88 1.88c-0.39 0.39-0.38 1.03 0 1.41zm8.21-13.29h-14c-1.11 0-2 0.9-2 2v3c0 0.55 0.45 1 1 1s1-0.45 1-1v-2c0-0.55 0.45-1 1-1h12c0.55 0 1 0.45 1 1v12c0 0.55-0.45 1-1 1h-12c-0.55 0-1-0.45-1-1v-2c0-0.55-0.45-1-1-1s-1 0.45-1 1v3c0 1.1 0.9 2 2 2h14c1.1 0 2-0.9 2-2v-14c0-1.1-0.9-2-2-2z"/>
</svg>
